<svg width="177" height="218" viewBox="0 0 177 218" fill="none" xmlns="http://www.w3.org/2000/svg">
<rect width="177" height="218" fill="#373737"/>
<path d="M39.8182 120V96.7273H47.6818C49.5076 96.7273 51 97.0568 52.1591 97.7159C53.3258 98.3674 54.1894 99.25 54.75 100.364C55.3106 101.477 55.5909 102.72 55.5909 104.091C55.5909 105.462 55.3106 106.708 54.75 107.83C54.197 108.951 53.3409 109.845 52.1818 110.511C51.0227 111.17 49.5379 111.5 47.7273 111.5H42.0909V109H47.6364C48.8864 109 49.8902 108.784 50.6477 108.352C51.4053 107.92 51.9545 107.337 52.2955 106.602C52.6439 105.86 52.8182 105.023 52.8182 104.091C52.8182 103.159 52.6439 102.326 52.2955 101.591C51.9545 100.856 51.4015 100.28 50.6364 99.8636C49.8712 99.4394 48.8561 99.2273 47.5909 99.2273H42.6364V120H39.8182ZM59.767 120V102.545H62.4489V120H59.767ZM61.1307 99.6364C60.608 99.6364 60.1572 99.4583 59.7784 99.1023C59.4072 98.7462 59.2216 98.3182 59.2216 97.8182C59.2216 97.3182 59.4072 96.8902 59.7784 96.5341C60.1572 96.178 60.608 96 61.1307 96C61.6534 96 62.1004 96.178 62.4716 96.5341C62.8504 96.8902 63.0398 97.3182 63.0398 97.8182C63.0398 98.3182 62.8504 98.7462 62.4716 99.1023C62.1004 99.4583 61.6534 99.6364 61.1307 99.6364ZM74.4517 120.364C72.8153 120.364 71.4063 119.977 70.2244 119.205C69.0426 118.432 68.1335 117.367 67.4972 116.011C66.8608 114.655 66.5426 113.106 66.5426 111.364C66.5426 109.591 66.8684 108.027 67.5199 106.67C68.179 105.307 69.0956 104.242 70.2699 103.477C71.4517 102.705 72.8305 102.318 74.4062 102.318C75.6335 102.318 76.7396 102.545 77.7244 103C78.7093 103.455 79.5161 104.091 80.1449 104.909C80.7737 105.727 81.1638 106.682 81.3153 107.773H78.6335C78.429 106.977 77.9744 106.273 77.2699 105.659C76.5729 105.038 75.6335 104.727 74.4517 104.727C73.4063 104.727 72.4896 105 71.7017 105.545C70.9214 106.083 70.3116 106.845 69.8722 107.83C69.4403 108.807 69.2244 109.955 69.2244 111.273C69.2244 112.621 69.4366 113.795 69.8608 114.795C70.2926 115.795 70.8987 116.572 71.679 117.125C72.4669 117.678 73.3911 117.955 74.4517 117.955C75.1487 117.955 75.7812 117.833 76.3494 117.591C76.9176 117.348 77.3987 117 77.7926 116.545C78.1866 116.091 78.4669 115.545 78.6335 114.909H81.3153C81.1638 115.939 80.7888 116.867 80.1903 117.693C79.5994 118.511 78.8153 119.163 77.8381 119.648C76.8684 120.125 75.7396 120.364 74.4517 120.364ZM92.8267 102.545V104.818H83.7812V102.545H92.8267ZM86.4176 98.3636H89.0994V115C89.0994 115.758 89.2093 116.326 89.429 116.705C89.6563 117.076 89.9441 117.326 90.2926 117.455C90.6487 117.576 91.0237 117.636 91.4176 117.636C91.7131 117.636 91.9555 117.621 92.1449 117.591C92.3343 117.553 92.4858 117.523 92.5994 117.5L93.1449 119.909C92.9631 119.977 92.7093 120.045 92.3835 120.114C92.0578 120.189 91.6449 120.227 91.1449 120.227C90.3873 120.227 89.6449 120.064 88.9176 119.739C88.1979 119.413 87.5994 118.917 87.1222 118.25C86.6525 117.583 86.4176 116.742 86.4176 115.727V98.3636ZM107.861 112.864V102.545H110.543V120H107.861V117.045H107.679C107.27 117.932 106.634 118.686 105.77 119.307C104.906 119.92 103.815 120.227 102.497 120.227C101.406 120.227 100.437 119.989 99.5881 119.511C98.7396 119.027 98.0729 118.299 97.5881 117.33C97.1032 116.352 96.8608 115.121 96.8608 113.636V102.545H99.5426V113.455C99.5426 114.727 99.8987 115.742 100.611 116.5C101.33 117.258 102.247 117.636 103.361 117.636C104.027 117.636 104.705 117.466 105.395 117.125C106.092 116.784 106.675 116.261 107.145 115.557C107.622 114.852 107.861 113.955 107.861 112.864ZM115.455 120V102.545H118.045V105.182H118.227C118.545 104.318 119.121 103.617 119.955 103.08C120.788 102.542 121.727 102.273 122.773 102.273C122.97 102.273 123.216 102.277 123.511 102.284C123.807 102.292 124.03 102.303 124.182 102.318V105.045C124.091 105.023 123.883 104.989 123.557 104.943C123.239 104.89 122.902 104.864 122.545 104.864C121.697 104.864 120.939 105.042 120.273 105.398C119.614 105.746 119.091 106.231 118.705 106.852C118.326 107.466 118.136 108.167 118.136 108.955V120H115.455ZM134.148 120.364C132.466 120.364 131.015 119.992 129.795 119.25C128.583 118.5 127.648 117.455 126.989 116.114C126.337 114.765 126.011 113.197 126.011 111.409C126.011 109.621 126.337 108.045 126.989 106.682C127.648 105.311 128.564 104.242 129.739 103.477C130.92 102.705 132.299 102.318 133.875 102.318C134.784 102.318 135.682 102.47 136.568 102.773C137.455 103.076 138.261 103.568 138.989 104.25C139.716 104.924 140.295 105.818 140.727 106.932C141.159 108.045 141.375 109.417 141.375 111.045V112.182H127.92V109.864H138.648C138.648 108.879 138.451 108 138.057 107.227C137.67 106.455 137.117 105.845 136.398 105.398C135.686 104.951 134.845 104.727 133.875 104.727C132.807 104.727 131.883 104.992 131.102 105.523C130.33 106.045 129.735 106.727 129.318 107.568C128.902 108.409 128.693 109.311 128.693 110.273V111.818C128.693 113.136 128.92 114.254 129.375 115.17C129.837 116.08 130.477 116.773 131.295 117.25C132.114 117.72 133.064 117.955 134.148 117.955C134.852 117.955 135.489 117.856 136.057 117.659C136.633 117.455 137.129 117.152 137.545 116.75C137.962 116.341 138.284 115.833 138.511 115.227L141.102 115.955C140.83 116.833 140.371 117.606 139.727 118.273C139.083 118.932 138.288 119.447 137.341 119.818C136.394 120.182 135.33 120.364 134.148 120.364Z" fill="white"/>
</svg>
