<svg width="24" height="24" viewBox="0 0 24 24" fill="none" xmlns="http://www.w3.org/2000/svg">
<path d="M20.754 4.792L17.914 19.102C17.8589 19.3795 17.7265 19.6357 17.532 19.8411C17.3376 20.0465 17.089 20.1928 16.815 20.263L12.746 21.308C12.2566 21.4336 11.7434 21.4336 11.254 21.308L7.18398 20.263C6.91046 20.1925 6.6624 20.0463 6.46833 19.8411C6.27426 19.6359 6.14207 19.38 6.08698 19.103L3.24598 4.792C3.20282 4.57453 3.20841 4.35019 3.26234 4.13513C3.31627 3.92008 3.4172 3.71965 3.55788 3.54828C3.69855 3.3769 3.87547 3.23885 4.07589 3.14404C4.27632 3.04924 4.49527 3.00004 4.71698 3H19.283C19.5047 3.00004 19.7236 3.04924 19.9241 3.14404C20.1245 3.23885 20.3014 3.3769 20.4421 3.54828C20.5828 3.71965 20.6837 3.92008 20.7376 4.13513C20.7916 4.35019 20.7971 4.57453 20.754 4.792Z" stroke="black" stroke-width="1.5" stroke-linecap="round" stroke-linejoin="round"/>
<path d="M17 6.88101H7.732C7.64314 6.88091 7.55537 6.90054 7.47502 6.93849C7.39467 6.97644 7.32376 7.03177 7.2674 7.10047C7.21104 7.16917 7.17065 7.24954 7.14914 7.33575C7.12762 7.42197 7.12553 7.51189 7.143 7.59901L8.002 11.891H15.998L15.107 16.349C15.0733 16.5176 14.9967 16.6746 14.8845 16.8049C14.7724 16.9352 14.6286 17.0345 14.467 17.093L12.341 17.863C12.121 17.9427 11.88 17.9427 11.66 17.863L9.533 17.093C9.37137 17.0345 9.22756 16.9352 9.11546 16.8049C9.00335 16.6746 8.92674 16.5176 8.893 16.349L8.669 15.23" stroke="black" stroke-width="1.5" stroke-linecap="round" stroke-linejoin="round"/>
</svg>
