<svg width="20" height="20" viewBox="0 0 20 20" fill="none" xmlns="http://www.w3.org/2000/svg">
<path d="M6.66725 9.75332C6.66725 7.95786 8.15918 6.50195 10.0001 6.50195C11.841 6.50195 13.3337 7.95786 13.3337 9.75332C13.3337 11.5488 11.841 13.0047 10.0001 13.0047C8.15918 13.0047 6.66725 11.5488 6.66725 9.75332ZM4.86514 9.75332C4.86514 12.5194 7.16402 14.7615 10.0001 14.7615C12.8361 14.7615 15.135 12.5194 15.135 9.75332C15.135 6.98725 12.8361 4.74509 10.0001 4.74509C7.16402 4.74509 4.86514 6.98725 4.86514 9.75332ZM14.1382 4.54656C14.1382 5.19258 14.6754 5.71727 15.3386 5.71727C16.0009 5.71727 16.5389 5.19258 16.5389 4.54656C16.5389 3.90054 16.0017 3.37663 15.3386 3.37663C14.6754 3.37663 14.1382 3.90054 14.1382 4.54656ZM5.95965 17.6923C4.98469 17.6489 4.4548 17.4906 4.10261 17.3567C3.63573 17.1794 3.30293 16.9683 2.95236 16.6271C2.6026 16.286 2.38532 15.9614 2.20438 15.506C2.06706 15.1625 1.9047 14.6457 1.86027 13.6948C1.81181 12.6667 1.80211 12.3579 1.80211 9.75332C1.80211 7.14876 1.81261 6.84071 1.86027 5.81181C1.9047 4.8609 2.06787 4.34487 2.20438 4.00059C2.38612 3.54523 2.6026 3.22064 2.95236 2.87873C3.30212 2.5376 3.63492 2.32567 4.10261 2.1492C4.4548 2.01527 4.98469 1.85691 5.95965 1.81358C7.01378 1.76631 7.33042 1.75686 10.0001 1.75686C12.6705 1.75686 12.9864 1.7671 14.0413 1.81358C15.0163 1.85691 15.5453 2.01605 15.8983 2.1492C16.3652 2.32567 16.698 2.5376 17.0486 2.87873C17.3983 3.21985 17.6148 3.54523 17.7966 4.00059C17.9339 4.34409 18.0962 4.8609 18.1407 5.81181C18.1891 6.84071 18.1988 7.14876 18.1988 9.75332C18.1988 12.3571 18.1891 12.6659 18.1407 13.6948C18.0962 14.6457 17.9331 15.1625 17.7966 15.506C17.6148 15.9614 17.3983 16.286 17.0486 16.6271C16.6988 16.9683 16.3652 17.1794 15.8983 17.3567C15.5462 17.4906 15.0163 17.6489 14.0413 17.6923C12.9872 17.7395 12.6705 17.749 10.0001 17.749C7.33042 17.749 7.01378 17.7395 5.95965 17.6923ZM5.87726 0.0590871C4.81263 0.106357 4.08565 0.271013 3.44994 0.512089C2.79243 0.761042 2.23507 1.09508 1.67853 1.63711C1.12279 2.17913 0.780296 2.72274 0.525044 3.36482C0.277869 3.98484 0.109048 4.69388 0.060582 5.73224C0.0113086 6.77217 0 7.10464 0 9.75332C0 12.402 0.0113086 12.7345 0.060582 13.7744C0.109048 14.8128 0.277869 15.5218 0.525044 16.1418C0.780296 16.7831 1.12198 17.3275 1.67853 17.8695C2.23426 18.4116 2.79162 18.7448 3.44994 18.9945C4.08646 19.2356 4.81263 19.4003 5.87726 19.4475C6.94431 19.4948 7.28438 19.5066 10.0001 19.5066C12.7166 19.5066 13.0566 19.4956 14.1229 19.4475C15.1875 19.4003 15.9145 19.2356 16.5502 18.9945C17.2077 18.7448 17.7651 18.4116 18.3216 17.8695C18.8774 17.3275 19.219 16.7831 19.4751 16.1418C19.7223 15.5218 19.8919 14.8128 19.9396 13.7744C19.988 12.7337 19.9993 12.402 19.9993 9.75332C19.9993 7.10464 19.988 6.77217 19.9396 5.73224C19.8911 4.69388 19.7223 3.98484 19.4751 3.36482C19.219 2.72352 18.8774 2.17992 18.3216 1.63711C17.7659 1.09508 17.2077 0.761042 16.551 0.512089C15.9145 0.271013 15.1875 0.105569 14.1237 0.0590871C13.0574 0.0118174 12.7166 0 10.0009 0C7.28438 0 6.94431 0.0110296 5.87726 0.0590871Z" fill="black"/>
</svg>
