<svg width="24" height="24" viewBox="0 0 24 24" fill="none" xmlns="http://www.w3.org/2000/svg">
<path d="M16.1381 4.62376C16.115 4.62348 16.0923 4.6293 16.0721 4.64064C16.0512 4.65292 16.0338 4.67033 16.0215 4.69123C16.0092 4.71213 16.0024 4.73583 16.0018 4.76007V8.30945C16.0015 8.32691 15.9968 8.34401 15.9882 8.3592C15.9796 8.37439 15.9673 8.38719 15.9525 8.39645C15.9375 8.40449 15.9208 8.4087 15.9038 8.4087C15.8867 8.4087 15.87 8.40449 15.855 8.39645L15.2801 8.06401C15.2379 8.03987 15.1901 8.02718 15.1415 8.02718C15.0928 8.02718 15.045 8.03987 15.0028 8.06401L12.7022 9.40182C12.6596 9.42582 12.624 9.46065 12.5992 9.5028C12.5744 9.54495 12.5611 9.59291 12.5608 9.64182V12.3118C12.5608 12.4099 12.6154 12.5031 12.7022 12.5522L15.0028 13.89C15.045 13.9141 15.0927 13.9267 15.1413 13.9267C15.1899 13.9267 15.2376 13.9141 15.2798 13.89L17.5804 12.5522C17.6672 12.5031 17.7218 12.4099 17.7218 12.3116V5.65539C17.7218 5.5517 17.6674 5.45851 17.5804 5.40976L16.2079 4.64007C16.1862 4.62913 16.1622 4.62335 16.1379 4.6232L16.1381 4.62376ZM2.56501 7.95564C2.52188 7.95564 2.47876 7.97195 2.44088 7.99332L0.140259 9.32589C0.0969297 9.3505 0.0609721 9.38625 0.0361138 9.42944C0.0112556 9.47263 -0.00159858 9.52168 -0.00111605 9.57151L0.00450895 13.1528C0.00450895 13.2019 0.0311339 13.2512 0.0746339 13.2731C0.0948198 13.2864 0.118447 13.2935 0.142603 13.2935C0.166758 13.2935 0.190386 13.2864 0.210571 13.2731L1.57838 12.4869C1.6209 12.4628 1.65629 12.4279 1.68099 12.3858C1.70568 12.3436 1.7188 12.2956 1.71901 12.2468V10.5705C1.71901 10.4724 1.77338 10.3793 1.86038 10.3301L2.44088 9.9917C2.48334 9.96593 2.53223 9.95273 2.58188 9.95364C2.63063 9.95364 2.67957 9.96432 2.71763 9.9917L3.29813 10.3301C3.38495 10.3793 3.43951 10.4724 3.43951 10.5707V12.2468C3.43951 12.3446 3.49351 12.438 3.58013 12.4868L4.93688 13.2731C4.95795 13.2866 4.98241 13.2937 5.00738 13.2937C5.03236 13.2937 5.05682 13.2866 5.07788 13.2731C5.09955 13.2614 5.11758 13.244 5.13004 13.2227C5.1425 13.2015 5.14891 13.1772 5.14857 13.1526V9.57132C5.14857 9.47307 5.0942 9.38007 5.0072 9.33076L2.7122 7.99332C2.67353 7.97281 2.63125 7.96001 2.5877 7.95564H2.56501ZM21.4463 7.99445V7.99482L21.4459 7.9952C21.3975 7.99543 21.3499 8.00815 21.3079 8.03214L19.0073 9.3692C18.9204 9.4187 18.8666 9.51132 18.8666 9.60976V12.2798C18.8666 12.378 18.9204 12.471 19.0073 12.52L21.291 13.8302C21.3321 13.8543 21.379 13.867 21.4267 13.867C21.4744 13.867 21.5212 13.8543 21.5623 13.8302L22.9461 13.0553C22.9677 13.0435 22.9857 13.0261 22.9981 13.0049C23.0105 12.9837 23.0169 12.9595 23.0166 12.9349C23.0169 12.9104 23.0105 12.8862 22.9981 12.865C22.9857 12.8439 22.9678 12.8265 22.9463 12.8147L20.6344 11.4769C20.6132 11.4645 20.5956 11.4468 20.5833 11.4256C20.571 11.4043 20.5644 11.3803 20.5641 11.3558V10.5204C20.5639 10.496 20.5703 10.4721 20.5827 10.451C20.5951 10.43 20.613 10.4127 20.6344 10.401L21.3572 9.98607C21.3783 9.97266 21.4027 9.96553 21.4277 9.96553C21.4527 9.96553 21.4771 9.97266 21.4982 9.98607L22.2189 10.401C22.2399 10.4132 22.2574 10.4306 22.2698 10.4515C22.2822 10.4724 22.289 10.4962 22.2896 10.5204V11.1756C22.2896 11.2249 22.3166 11.2738 22.3599 11.2956C22.3811 11.3091 22.4056 11.3162 22.4306 11.3162C22.4557 11.3162 22.4802 11.3091 22.5013 11.2956L23.8682 10.4933C23.9102 10.469 23.945 10.434 23.9691 10.3919C23.9931 10.3497 24.0056 10.302 24.0051 10.2534V9.60376C24.0051 9.50551 23.9499 9.41251 23.8682 9.3632L21.5844 8.03195C21.5422 8.00758 21.4944 7.99459 21.4457 7.99426L21.4463 7.99445ZM8.84813 8.03832C8.81607 8.04395 8.78438 8.05445 8.75551 8.07132L6.52988 9.36376L8.99551 13.9125C9.00876 13.9074 9.02157 13.9013 9.03395 13.8943L11.3327 12.5591C11.3655 12.54 11.3934 12.5147 11.4154 12.4851L8.84851 8.03757L8.84813 8.03832ZM9.0887 8.10395L10.6125 10.7458L11.3353 9.40876L11.3314 9.40614L9.08888 8.10489L9.0887 8.10395ZM6.38495 9.4667C6.34222 9.51719 6.31865 9.58112 6.31838 9.64726V12.3173C6.31863 12.3503 6.32432 12.3819 6.33545 12.4121L7.18388 10.9406L6.38476 9.46595L6.38495 9.4667ZM11.4549 9.55707L10.7156 10.9234L11.4703 12.2316V9.64782C11.4701 9.61657 11.4649 9.58657 11.4549 9.55782V9.55707ZM15.1468 9.98889C15.1592 9.98889 15.1711 9.9917 15.1824 9.99732L15.9684 10.4561C15.9902 10.467 16.0014 10.494 16.0014 10.5159V11.4334C16.0014 11.4608 15.9902 11.4829 15.9684 11.4938L15.1819 11.9522C15.1709 11.9576 15.1588 11.9604 15.1465 11.9604C15.1343 11.9604 15.1222 11.9576 15.1112 11.9522L14.3246 11.4941C14.3029 11.4833 14.2918 11.4557 14.2918 11.4338V10.5163C14.2918 10.4889 14.3031 10.4672 14.3246 10.4563L15.1112 9.99732C15.1222 9.99161 15.1344 9.98871 15.1468 9.98889ZM21.4374 10.3601C21.4278 10.3602 21.4184 10.3632 21.4104 10.3686L20.9706 10.6254C20.9623 10.6306 20.9554 10.6377 20.9507 10.6463C20.946 10.6548 20.9436 10.6644 20.9438 10.6742V11.1879C20.9436 11.1977 20.946 11.2073 20.9506 11.2158C20.9553 11.2244 20.9621 11.2316 20.9704 11.2367L21.4104 11.4936C21.4185 11.4989 21.4279 11.5018 21.4375 11.5018C21.4472 11.5018 21.4566 11.4989 21.4646 11.4936L21.9041 11.2367C21.9124 11.2315 21.9191 11.2243 21.9239 11.2158C21.9286 11.2073 21.9311 11.1977 21.9311 11.1879V10.6744C21.9313 10.6646 21.9288 10.655 21.9241 10.6464C21.9194 10.6379 21.9125 10.6307 21.9041 10.6256L21.4646 10.3688C21.4566 10.3634 21.4471 10.3605 21.4374 10.3605V10.3601ZM7.2812 11.1225L6.45357 12.5576L6.4562 12.5595L8.75307 13.8947C8.76595 13.9021 8.77926 13.9083 8.79301 13.9135L7.28063 11.1234L7.2812 11.1225ZM11.8581 13.4325C11.778 13.4325 11.6981 13.4514 11.6303 13.4897L9.46463 14.7516C9.39519 14.7923 9.33762 14.8505 9.29765 14.9204C9.25768 14.9903 9.23671 15.0695 9.23682 15.15V17.6663C9.23682 17.8301 9.32363 17.9831 9.46463 18.0651L10.0348 18.3925C10.3114 18.529 10.4089 18.528 10.5336 18.528C10.9404 18.528 11.1741 18.2773 11.1741 17.8461V15.3636C11.1739 15.3463 11.167 15.3298 11.1549 15.3175C11.1428 15.3052 11.1264 15.2981 11.1092 15.2976H10.8326C10.8152 15.2978 10.7986 15.3049 10.7863 15.3172C10.774 15.3295 10.767 15.3462 10.7668 15.3636V17.8479C10.7668 18.039 10.5669 18.2303 10.2469 18.0666L9.65513 17.7227C9.63338 17.7118 9.62251 17.6839 9.62251 17.6621V15.144C9.62251 15.1223 9.63338 15.0947 9.65513 15.084L11.8189 13.8287C11.8352 13.8178 11.8622 13.8178 11.8845 13.8287L14.0483 15.084C14.0696 15.0953 14.0811 15.117 14.0811 15.144V17.6603C14.0811 17.6875 14.0698 17.71 14.0481 17.7208L11.8824 18.9821C11.8661 18.993 11.8391 18.993 11.8168 18.9821L11.2641 18.6489C11.2476 18.6381 11.2256 18.6328 11.2095 18.6433C11.0576 18.7311 11.0308 18.7423 10.8844 18.7915C10.8518 18.8023 10.7976 18.8237 10.9059 18.8837L11.6282 19.3155C11.6987 19.3536 11.7744 19.3751 11.856 19.3751C11.9374 19.3751 12.0184 19.3536 12.0834 19.3264L14.2491 18.0651C14.3186 18.0243 14.3763 17.9659 14.4162 17.8959C14.4562 17.8258 14.4771 17.7465 14.4769 17.6659V15.1496C14.4769 14.9858 14.3901 14.8335 14.2491 14.7516L12.0834 13.4897C12.0137 13.4517 11.9354 13.4321 11.856 13.4327V13.4323L11.8581 13.4325ZM15.2387 14.5819C15.1276 14.5823 15.0212 14.6269 14.9429 14.7057C14.8646 14.7846 14.8208 14.8913 14.8211 15.0024C14.8208 15.1135 14.8646 15.2202 14.9429 15.299C15.0212 15.3779 15.1276 15.4224 15.2387 15.4228C15.4669 15.4228 15.6568 15.2316 15.6568 15.0024C15.6562 14.8915 15.6121 14.7853 15.5338 14.7066C15.4556 14.628 15.3496 14.5833 15.2387 14.5821V14.5819ZM15.2331 14.6524H15.2336C15.2799 14.6518 15.3258 14.6605 15.3687 14.6778C15.4116 14.6952 15.4506 14.7209 15.4835 14.7535C15.5164 14.786 15.5424 14.8248 15.5601 14.8676C15.5778 14.9103 15.5869 14.9562 15.5867 15.0024C15.5867 15.1937 15.429 15.357 15.2336 15.357C15.0439 15.357 14.886 15.1991 14.886 15.0026C14.886 14.8061 15.0491 14.6528 15.2333 14.6524M15.0814 14.7675V15.2475H15.174V15.0576H15.2561C15.2888 15.0576 15.2993 15.0684 15.3049 15.0956C15.3049 15.1013 15.321 15.2211 15.321 15.2428H15.4183C15.4071 15.2211 15.4022 15.1551 15.3968 15.1168C15.3915 15.0568 15.3863 15.0135 15.321 15.0081C15.3536 14.997 15.4073 14.9809 15.4073 14.8935C15.4073 14.7679 15.2985 14.7679 15.2443 14.7679L15.0814 14.7675ZM15.1635 14.844H15.2389C15.2663 14.844 15.3099 14.844 15.3099 14.9096C15.3099 14.9312 15.2989 14.9753 15.2389 14.9753H15.1635V14.844ZM12.4504 15.2209C11.8316 15.2209 11.4621 15.4832 11.4621 15.9255C11.4621 16.4006 11.8311 16.5309 12.4226 16.591C13.1333 16.6622 13.1876 16.7661 13.1876 16.9078C13.1876 17.1535 12.9923 17.257 12.5364 17.257C11.9612 17.257 11.8361 17.115 11.7926 16.8257C11.7926 16.7929 11.7664 16.7713 11.7336 16.7713H11.4516C11.4429 16.7713 11.4344 16.773 11.4264 16.7763C11.4184 16.7796 11.4111 16.7844 11.405 16.7905C11.3989 16.7967 11.394 16.8039 11.3907 16.8119C11.3874 16.8199 11.3857 16.8285 11.3858 16.8371C11.3858 17.2084 11.5817 17.6449 12.5314 17.6449C13.215 17.6449 13.6104 17.3719 13.6104 16.8911C13.6104 16.4218 13.2954 16.2958 12.6283 16.2085C11.9552 16.1211 11.8849 16.0718 11.8849 15.9137C11.8849 15.7824 11.9449 15.6081 12.4436 15.6081C12.8889 15.6081 13.0573 15.7065 13.1224 16.0067C13.1255 16.0202 13.133 16.0324 13.1436 16.0413C13.1543 16.0502 13.1676 16.0553 13.1814 16.056H13.4693C13.4856 16.056 13.5024 16.0453 13.5135 16.0344C13.5234 16.0198 13.529 16.0026 13.5296 15.9849C13.4865 15.4609 13.1447 15.2207 12.45 15.2207L12.4504 15.2209Z" fill="black"/>
</svg>
