<svg width="24" height="25" viewBox="0 0 24 25" fill="none" xmlns="http://www.w3.org/2000/svg">
<circle cx="12" cy="13" r="12" fill="#0E0E0E"/>
<path d="M10.22 6.94V6.4H14.04V6.94L12.94 7.04C12.7267 7.06667 12.6 7.12667 12.56 7.22C12.52 7.3 12.5 7.56667 12.5 8.02V20H11.52L4.24 7.72V18.38C4.24 18.8333 4.26 19.1067 4.3 19.2C4.34 19.28 4.46667 19.3333 4.68 19.36L5.78 19.48V20H1.96V19.48L3.06 19.36C3.27333 19.3333 3.4 19.28 3.44 19.2C3.48 19.1067 3.5 18.8333 3.5 18.38V8.02C3.5 7.56667 3.48 7.3 3.44 7.22C3.4 7.12667 3.27333 7.06667 3.06 7.04L1.96 6.94V6.4H5.42L11.76 17.12V8.02C11.76 7.56667 11.74 7.3 11.7 7.22C11.66 7.12667 11.5333 7.06667 11.32 7.04L10.22 6.94Z" fill="#EAEAEA"/>
<path d="M13.76 19.48V20H9.96V19.48L11.04 19.36C11.1867 19.3467 11.2933 19.3267 11.36 19.3C11.4267 19.26 11.4867 19.18 11.54 19.06C11.6067 18.9267 11.6867 18.7 11.78 18.38L15.64 6.4H16.9L20.8 18.38C20.8933 18.7 20.9667 18.9267 21.02 19.06C21.0867 19.18 21.1533 19.26 21.22 19.3C21.2867 19.3267 21.3867 19.3467 21.52 19.36L22.62 19.48V20H17.76V19.48L18.86 19.36C19.0733 19.3333 19.1867 19.28 19.2 19.2C19.2267 19.1067 19.1667 18.8333 19.02 18.38L18.2 15.82H13.32L12.5 18.38C12.3533 18.8333 12.2867 19.1067 12.3 19.2C12.3267 19.28 12.4467 19.3333 12.66 19.36L13.76 19.48ZM13.52 15.18H18L15.76 8.22L13.52 15.18Z" fill="#EAEAEA"/>
</svg>
