<svg width="205" height="106" viewBox="0 0 205 106" fill="none" xmlns="http://www.w3.org/2000/svg">
<rect width="205" height="106" fill="#2C2C2C"/>
<path d="M43.5368 48V33.4545H48.4515C49.5926 33.4545 50.5254 33.6605 51.2498 34.0724C51.979 34.4796 52.5188 35.0312 52.8691 35.7273C53.2195 36.4233 53.3947 37.1998 53.3947 38.0568C53.3947 38.9138 53.2195 39.6927 52.8691 40.3935C52.5235 41.0942 51.9885 41.6529 51.264 42.0696C50.5396 42.4815 49.6116 42.6875 48.4799 42.6875H44.9572V41.125H48.4231C49.2044 41.125 49.8317 40.9901 50.3052 40.7202C50.7787 40.4503 51.122 40.0857 51.335 39.6264C51.5529 39.1624 51.6618 38.6392 51.6618 38.0568C51.6618 37.4744 51.5529 36.9536 51.335 36.4943C51.122 36.035 50.7763 35.6752 50.2981 35.4148C49.8199 35.1496 49.1854 35.017 48.3947 35.017H45.2981V48H43.5368ZM56.0048 48V37.0909H57.6241V38.7386H57.7377C57.9366 38.1989 58.2965 37.7609 58.8173 37.4247C59.3381 37.0885 59.9252 36.9205 60.5787 36.9205C60.7018 36.9205 60.8556 36.9228 61.0403 36.9276C61.225 36.9323 61.3646 36.9394 61.4593 36.9489V38.6534C61.4025 38.6392 61.2723 38.6179 61.0687 38.5895C60.8699 38.5563 60.6592 38.5398 60.4366 38.5398C59.9063 38.5398 59.4328 38.651 59.0162 38.8736C58.6042 39.0914 58.2775 39.3944 58.036 39.7827C57.7993 40.1662 57.6809 40.6042 57.6809 41.0966V48H56.0048ZM67.688 48.2273C66.6369 48.2273 65.7302 47.9953 64.9679 47.5312C64.2103 47.0625 63.6255 46.4091 63.2136 45.571C62.8064 44.7282 62.6028 43.7481 62.6028 42.6307C62.6028 41.5133 62.8064 40.5284 63.2136 39.6761C63.6255 38.8191 64.1984 38.1515 64.9324 37.6733C65.671 37.1903 66.5327 36.9489 67.5176 36.9489C68.0858 36.9489 68.6468 37.0436 69.2008 37.233C69.7548 37.4223 70.2591 37.7301 70.7136 38.1562C71.1681 38.5777 71.5304 39.1364 71.8002 39.8324C72.0701 40.5284 72.2051 41.3854 72.2051 42.4034V43.1136H63.796V41.6648H70.5005C70.5005 41.0492 70.3774 40.5 70.1312 40.017C69.8897 39.5341 69.5441 39.1529 69.0943 38.8736C68.6492 38.5942 68.1236 38.4545 67.5176 38.4545C66.85 38.4545 66.2723 38.6203 65.7846 38.9517C65.3017 39.2784 64.93 39.7045 64.6696 40.2301C64.4092 40.7557 64.2789 41.3191 64.2789 41.9205V42.8864C64.2789 43.7102 64.421 44.4086 64.7051 44.9815C64.9939 45.5497 65.394 45.983 65.9054 46.2812C66.4167 46.5748 67.0109 46.7216 67.688 46.7216C68.1284 46.7216 68.5261 46.66 68.8812 46.5369C69.2411 46.4091 69.5512 46.2197 69.8116 45.9688C70.072 45.7131 70.2733 45.3958 70.4153 45.017L72.0346 45.4716C71.8642 46.0208 71.5777 46.5038 71.1752 46.9205C70.7728 47.3324 70.2756 47.6544 69.6838 47.8864C69.0919 48.1136 68.4267 48.2273 67.688 48.2273ZM83.3432 37.0909L79.3091 48H77.6046L73.5705 37.0909H75.3887L78.4 45.7841H78.5137L81.525 37.0909H83.3432ZM85.5556 48V37.0909H87.2317V48H85.5556ZM86.4078 35.2727C86.0811 35.2727 85.7994 35.1615 85.5627 34.9389C85.3307 34.7164 85.2147 34.4489 85.2147 34.1364C85.2147 33.8239 85.3307 33.5563 85.5627 33.3338C85.7994 33.1113 86.0811 33 86.4078 33C86.7346 33 87.0139 33.1113 87.2459 33.3338C87.4827 33.5563 87.601 33.8239 87.601 34.1364C87.601 34.4489 87.4827 34.7164 87.2459 34.9389C87.0139 35.1615 86.7346 35.2727 86.4078 35.2727ZM94.8755 48.2273C93.8244 48.2273 92.9177 47.9953 92.1554 47.5312C91.3978 47.0625 90.813 46.4091 90.4011 45.571C89.9939 44.7282 89.7903 43.7481 89.7903 42.6307C89.7903 41.5133 89.9939 40.5284 90.4011 39.6761C90.813 38.8191 91.3859 38.1515 92.1199 37.6733C92.8585 37.1903 93.7202 36.9489 94.7051 36.9489C95.2733 36.9489 95.8343 37.0436 96.3883 37.233C96.9423 37.4223 97.4466 37.7301 97.9011 38.1562C98.3556 38.5777 98.7179 39.1364 98.9877 39.8324C99.2576 40.5284 99.3926 41.3854 99.3926 42.4034V43.1136H90.9835V41.6648H97.688C97.688 41.0492 97.5649 40.5 97.3187 40.017C97.0772 39.5341 96.7316 39.1529 96.2818 38.8736C95.8367 38.5942 95.3111 38.4545 94.7051 38.4545C94.0375 38.4545 93.4598 38.6203 92.9721 38.9517C92.4892 39.2784 92.1175 39.7045 91.8571 40.2301C91.5967 40.7557 91.4664 41.3191 91.4664 41.9205V42.8864C91.4664 43.7102 91.6085 44.4086 91.8926 44.9815C92.1814 45.5497 92.5815 45.983 93.0929 46.2812C93.6042 46.5748 94.1984 46.7216 94.8755 46.7216C95.3159 46.7216 95.7136 46.66 96.0687 46.5369C96.4286 46.4091 96.7387 46.2197 96.9991 45.9688C97.2595 45.7131 97.4608 45.3958 97.6028 45.017L99.2221 45.4716C99.0517 46.0208 98.7652 46.5038 98.3627 46.9205C97.9603 47.3324 97.4631 47.6544 96.8713 47.8864C96.2794 48.1136 95.6142 48.2273 94.8755 48.2273ZM104.414 48L101.09 37.0909H102.851L105.209 45.4432H105.323L107.653 37.0909H109.442L111.743 45.4148H111.857L114.215 37.0909H115.976L112.653 48H111.005L108.618 39.6193H108.448L106.062 48H104.414ZM126.289 48L122.965 37.0909H124.726L127.084 45.4432H127.198L129.528 37.0909H131.317L133.618 45.4148H133.732L136.09 37.0909H137.851L134.528 48H132.88L130.493 39.6193H130.323L127.937 48H126.289ZM144.27 48.2273C143.219 48.2273 142.312 47.9953 141.55 47.5312C140.792 47.0625 140.208 46.4091 139.796 45.571C139.388 44.7282 139.185 43.7481 139.185 42.6307C139.185 41.5133 139.388 40.5284 139.796 39.6761C140.208 38.8191 140.78 38.1515 141.514 37.6733C142.253 37.1903 143.115 36.9489 144.1 36.9489C144.668 36.9489 145.229 37.0436 145.783 37.233C146.337 37.4223 146.841 37.7301 147.296 38.1562C147.75 38.5777 148.112 39.1364 148.382 39.8324C148.652 40.5284 148.787 41.3854 148.787 42.4034V43.1136H140.378V41.6648H147.083C147.083 41.0492 146.959 40.5 146.713 40.017C146.472 39.5341 146.126 39.1529 145.676 38.8736C145.231 38.5942 144.706 38.4545 144.1 38.4545C143.432 38.4545 142.854 38.6203 142.367 38.9517C141.884 39.2784 141.512 39.7045 141.252 40.2301C140.991 40.7557 140.861 41.3191 140.861 41.9205V42.8864C140.861 43.7102 141.003 44.4086 141.287 44.9815C141.576 45.5497 141.976 45.983 142.487 46.2812C142.999 46.5748 143.593 46.7216 144.27 46.7216C144.71 46.7216 145.108 46.66 145.463 46.5369C145.823 46.4091 146.133 46.2197 146.394 45.9688C146.654 45.7131 146.855 45.3958 146.997 45.017L148.617 45.4716C148.446 46.0208 148.16 46.5038 147.757 46.9205C147.355 47.3324 146.858 47.6544 146.266 47.8864C145.674 48.1136 145.009 48.2273 144.27 48.2273ZM151.564 48V33.4545H153.24V38.8239H153.382C153.505 38.6345 153.676 38.393 153.894 38.0994C154.116 37.8011 154.433 37.536 154.845 37.304C155.262 37.0672 155.825 36.9489 156.536 36.9489C157.454 36.9489 158.264 37.1785 158.965 37.6378C159.665 38.0971 160.212 38.7481 160.605 39.5909C160.998 40.4337 161.195 41.428 161.195 42.5739C161.195 43.7292 160.998 44.7306 160.605 45.5781C160.212 46.4209 159.668 47.0743 158.972 47.5384C158.276 47.9976 157.473 48.2273 156.564 48.2273C155.863 48.2273 155.302 48.1113 154.881 47.8793C154.459 47.6425 154.135 47.375 153.908 47.0767C153.681 46.7737 153.505 46.5227 153.382 46.3239H153.183V48H151.564ZM153.212 42.5455C153.212 43.3693 153.333 44.0961 153.574 44.7259C153.816 45.3509 154.168 45.8409 154.632 46.196C155.096 46.5464 155.664 46.7216 156.337 46.7216C157.038 46.7216 157.622 46.5369 158.091 46.1676C158.565 45.7936 158.92 45.2917 159.156 44.6619C159.398 44.0275 159.519 43.322 159.519 42.5455C159.519 41.7784 159.4 41.0871 159.164 40.4716C158.932 39.8513 158.579 39.3613 158.105 39.0014C157.637 38.6368 157.047 38.4545 156.337 38.4545C155.655 38.4545 155.082 38.6274 154.618 38.973C154.154 39.3139 153.804 39.7921 153.567 40.4077C153.33 41.0185 153.212 41.7311 153.212 42.5455ZM69.3233 72.2273C68.4142 72.2273 67.6117 71.9976 66.9157 71.5384C66.2196 71.0743 65.6751 70.4209 65.2821 69.5781C64.8891 68.7306 64.6926 67.7292 64.6926 66.5739C64.6926 65.428 64.8891 64.4337 65.2821 63.5909C65.6751 62.7481 66.222 62.0971 66.9228 61.6378C67.6235 61.1785 68.4332 60.9489 69.3517 60.9489C70.062 60.9489 70.623 61.0672 71.035 61.304C71.4516 61.536 71.7689 61.8011 71.9867 62.0994C72.2092 62.393 72.382 62.6345 72.5051 62.8239H72.6472V57.4545H74.3233V72H72.704V70.3239H72.5051C72.382 70.5227 72.2069 70.7737 71.9796 71.0767C71.7523 71.375 71.428 71.6425 71.0066 71.8793C70.5852 72.1113 70.0241 72.2273 69.3233 72.2273ZM69.5506 70.7216C70.223 70.7216 70.7911 70.5464 71.2551 70.196C71.7192 69.8409 72.0719 69.3509 72.3134 68.7259C72.5549 68.0961 72.6756 67.3693 72.6756 66.5455C72.6756 65.7311 72.5572 65.0185 72.3205 64.4077C72.0837 63.7921 71.7334 63.3139 71.2694 62.973C70.8053 62.6274 70.2324 62.4545 69.5506 62.4545C68.8404 62.4545 68.2485 62.6368 67.775 63.0014C67.3063 63.3613 66.9535 63.8513 66.7168 64.4716C66.4848 65.0871 66.3688 65.7784 66.3688 66.5455C66.3688 67.322 66.4872 68.0275 66.7239 68.6619C66.9654 69.2917 67.3205 69.7936 67.7892 70.1676C68.2627 70.5369 68.8498 70.7216 69.5506 70.7216ZM82.1998 72.2273C81.1486 72.2273 80.2419 71.9953 79.4796 71.5312C78.722 71.0625 78.1373 70.4091 77.7253 69.571C77.3181 68.7282 77.1145 67.7481 77.1145 66.6307C77.1145 65.5133 77.3181 64.5284 77.7253 63.6761C78.1373 62.8191 78.7102 62.1515 79.4441 61.6733C80.1827 61.1903 81.0444 60.9489 82.0293 60.9489C82.5975 60.9489 83.1586 61.0436 83.7125 61.233C84.2665 61.4223 84.7708 61.7301 85.2253 62.1562C85.6799 62.5777 86.0421 63.1364 86.312 63.8324C86.5819 64.5284 86.7168 65.3854 86.7168 66.4034V67.1136H78.3077V65.6648H85.0123C85.0123 65.0492 84.8891 64.5 84.6429 64.017C84.4015 63.5341 84.0558 63.1529 83.606 62.8736C83.1609 62.5942 82.6354 62.4545 82.0293 62.4545C81.3617 62.4545 80.784 62.6203 80.2963 62.9517C79.8134 63.2784 79.4417 63.7045 79.1813 64.2301C78.9209 64.7557 78.7907 65.3191 78.7907 65.9205V66.8864C78.7907 67.7102 78.9327 68.4086 79.2168 68.9815C79.5056 69.5497 79.9057 69.983 80.4171 70.2812C80.9284 70.5748 81.5227 70.7216 82.1998 70.7216C82.6401 70.7216 83.0378 70.66 83.3929 70.5369C83.7528 70.4091 84.0629 70.2197 84.3233 69.9688C84.5837 69.7131 84.785 69.3958 84.927 69.017L86.5463 69.4716C86.3759 70.0208 86.0894 70.5038 85.687 70.9205C85.2845 71.3324 84.7873 71.6544 84.1955 71.8864C83.6036 72.1136 82.9384 72.2273 82.1998 72.2273ZM96.9938 63.5341L95.4881 63.9602C95.3934 63.7093 95.2537 63.4654 95.0691 63.2287C94.8891 62.9872 94.6429 62.7884 94.3304 62.6321C94.0179 62.4759 93.6178 62.3977 93.1301 62.3977C92.4625 62.3977 91.9062 62.5516 91.4611 62.8594C91.0208 63.1624 90.8006 63.5483 90.8006 64.017C90.8006 64.4337 90.9521 64.7628 91.2551 65.0043C91.5582 65.2457 92.0317 65.447 92.6756 65.608L94.2949 66.0057C95.2703 66.2424 95.9971 66.6046 96.4753 67.0923C96.9535 67.5753 97.1926 68.1979 97.1926 68.9602C97.1926 69.5852 97.0127 70.1439 96.6529 70.6364C96.2978 71.1288 95.8006 71.517 95.1614 71.8011C94.5222 72.0852 93.7788 72.2273 92.9313 72.2273C91.8186 72.2273 90.8977 71.9858 90.1685 71.5028C89.4393 71.0199 88.9777 70.3144 88.7836 69.3864L90.3745 68.9886C90.526 69.5758 90.8124 70.0161 91.2338 70.3097C91.66 70.6032 92.2163 70.75 92.9029 70.75C93.6841 70.75 94.3044 70.5843 94.7637 70.2528C95.2277 69.9167 95.4597 69.5142 95.4597 69.0455C95.4597 68.6667 95.3271 68.3494 95.062 68.0938C94.7968 67.8333 94.3896 67.6392 93.8404 67.5114L92.0222 67.0852C91.0231 66.8485 90.2892 66.4815 89.8205 65.9844C89.3565 65.4825 89.1245 64.8551 89.1245 64.1023C89.1245 63.4867 89.2973 62.9422 89.6429 62.4688C89.9933 61.9953 90.4692 61.6236 91.0705 61.3537C91.6766 61.0838 92.3631 60.9489 93.1301 60.9489C94.2097 60.9489 95.0572 61.1856 95.6728 61.6591C96.293 62.1326 96.7334 62.7576 96.9938 63.5341ZM101.278 68.0227L101.25 65.9489H101.591L106.363 61.0909H108.437L103.352 66.233H103.21L101.278 68.0227ZM99.7157 72V57.4545H101.392V72H99.7157ZM106.648 72L102.386 66.6023L103.579 65.4375L108.778 72H106.648ZM115.339 61.0909V62.5114H109.686V61.0909H115.339ZM111.333 58.4773H113.009V68.875C113.009 69.3485 113.078 69.7036 113.215 69.9403C113.357 70.1723 113.537 70.3286 113.755 70.4091C113.978 70.4848 114.212 70.5227 114.458 70.5227C114.643 70.5227 114.794 70.5133 114.913 70.4943C115.031 70.4706 115.126 70.4517 115.197 70.4375L115.538 71.9432C115.424 71.9858 115.266 72.0284 115.062 72.071C114.858 72.1184 114.6 72.142 114.288 72.142C113.814 72.142 113.35 72.0402 112.896 71.8366C112.446 71.633 112.072 71.3229 111.774 70.9062C111.48 70.4896 111.333 69.964 111.333 69.3295V58.4773ZM122.175 72.2273C121.19 72.2273 120.326 71.9929 119.583 71.5241C118.844 71.0554 118.266 70.3996 117.85 69.5568C117.438 68.714 117.232 67.7292 117.232 66.6023C117.232 65.4659 117.438 64.474 117.85 63.6264C118.266 62.7789 118.844 62.1207 119.583 61.652C120.326 61.1832 121.19 60.9489 122.175 60.9489C123.16 60.9489 124.021 61.1832 124.76 61.652C125.503 62.1207 126.081 62.7789 126.493 63.6264C126.91 64.474 127.118 65.4659 127.118 66.6023C127.118 67.7292 126.91 68.714 126.493 69.5568C126.081 70.3996 125.503 71.0554 124.76 71.5241C124.021 71.9929 123.16 72.2273 122.175 72.2273ZM122.175 70.7216C122.923 70.7216 123.539 70.5298 124.021 70.1463C124.504 69.7628 124.862 69.2585 125.094 68.6335C125.326 68.0085 125.442 67.3314 125.442 66.6023C125.442 65.8731 125.326 65.1937 125.094 64.5639C124.862 63.9342 124.504 63.4252 124.021 63.0369C123.539 62.6487 122.923 62.4545 122.175 62.4545C121.427 62.4545 120.811 62.6487 120.328 63.0369C119.845 63.4252 119.488 63.9342 119.256 64.5639C119.024 65.1937 118.908 65.8731 118.908 66.6023C118.908 67.3314 119.024 68.0085 119.256 68.6335C119.488 69.2585 119.845 69.7628 120.328 70.1463C120.811 70.5298 121.427 70.7216 122.175 70.7216ZM129.677 76.0909V61.0909H131.296V62.8239H131.495C131.618 62.6345 131.788 62.393 132.006 62.0994C132.229 61.8011 132.546 61.536 132.958 61.304C133.375 61.0672 133.938 60.9489 134.648 60.9489C135.567 60.9489 136.376 61.1785 137.077 61.6378C137.778 62.0971 138.325 62.7481 138.718 63.5909C139.111 64.4337 139.307 65.428 139.307 66.5739C139.307 67.7292 139.111 68.7306 138.718 69.5781C138.325 70.4209 137.78 71.0743 137.084 71.5384C136.388 71.9976 135.586 72.2273 134.677 72.2273C133.976 72.2273 133.415 72.1113 132.993 71.8793C132.572 71.6425 132.248 71.375 132.02 71.0767C131.793 70.7737 131.618 70.5227 131.495 70.3239H131.353V76.0909H129.677ZM131.324 66.5455C131.324 67.3693 131.445 68.0961 131.687 68.7259C131.928 69.3509 132.281 69.8409 132.745 70.196C133.209 70.5464 133.777 70.7216 134.449 70.7216C135.15 70.7216 135.735 70.5369 136.204 70.1676C136.677 69.7936 137.032 69.2917 137.269 68.6619C137.51 68.0275 137.631 67.322 137.631 66.5455C137.631 65.7784 137.513 65.0871 137.276 64.4716C137.044 63.8513 136.691 63.3613 136.218 63.0014C135.749 62.6368 135.16 62.4545 134.449 62.4545C133.768 62.4545 133.195 62.6274 132.731 62.973C132.267 63.3139 131.916 63.7921 131.68 64.4077C131.443 65.0185 131.324 65.7311 131.324 66.5455Z" fill="white"/>
</svg>
