<svg width="47" height="77" viewBox="0 0 47 77" fill="none" xmlns="http://www.w3.org/2000/svg">
<rect width="47" height="77" fill="#2C2C2C"/>
<path d="M5.15998 31V23.7273H7.61737C8.18791 23.7273 8.6543 23.8303 9.01651 24.0362C9.3811 24.2398 9.65098 24.5156 9.82617 24.8636C10.0014 25.2116 10.089 25.5999 10.089 26.0284C10.089 26.4569 10.0014 26.8464 9.82617 27.1967C9.65335 27.5471 9.38583 27.8265 9.02362 28.0348C8.6614 28.2408 8.19738 28.3438 7.63157 28.3438H5.87021V27.5625H7.60316C7.99379 27.5625 8.30747 27.495 8.54421 27.3601C8.78095 27.2251 8.95259 27.0429 9.05913 26.8132C9.16803 26.5812 9.22248 26.3196 9.22248 26.0284C9.22248 25.7372 9.16803 25.4768 9.05913 25.2472C8.95259 25.0175 8.77977 24.8376 8.54066 24.7074C8.30155 24.5748 7.98432 24.5085 7.58896 24.5085H6.04066V31H5.15998ZM11.394 31V25.5455H12.2037V26.3693H12.2605C12.3599 26.0994 12.5398 25.8804 12.8002 25.7124C13.0607 25.5443 13.3542 25.4602 13.6809 25.4602C13.7425 25.4602 13.8194 25.4614 13.9118 25.4638C14.0041 25.4661 14.0739 25.4697 14.1213 25.4744V26.3267C14.0929 26.3196 14.0278 26.3089 13.926 26.2947C13.8265 26.2782 13.7212 26.2699 13.6099 26.2699C13.3448 26.2699 13.108 26.3255 12.8997 26.4368C12.6937 26.5457 12.5304 26.6972 12.4096 26.8913C12.2913 27.0831 12.2321 27.3021 12.2321 27.5483V31H11.394ZM17.2356 31.1136C16.71 31.1136 16.2567 30.9976 15.8755 30.7656C15.4967 30.5312 15.2044 30.2045 14.9984 29.7855C14.7948 29.3641 14.693 28.8741 14.693 28.3153C14.693 27.7566 14.7948 27.2642 14.9984 26.8381C15.2044 26.4096 15.4908 26.0758 15.8578 25.8366C16.2271 25.5952 16.658 25.4744 17.1504 25.4744C17.4345 25.4744 17.715 25.5218 17.992 25.6165C18.269 25.7112 18.5211 25.8651 18.7484 26.0781C18.9757 26.2888 19.1568 26.5682 19.2917 26.9162C19.4267 27.2642 19.4941 27.6927 19.4941 28.2017V28.5568H15.2896V27.8324H18.6419C18.6419 27.5246 18.5803 27.25 18.4572 27.0085C18.3365 26.767 18.1636 26.5765 17.9387 26.4368C17.7162 26.2971 17.4534 26.2273 17.1504 26.2273C16.8166 26.2273 16.5278 26.3101 16.2839 26.4759C16.0424 26.6392 15.8566 26.8523 15.7264 27.1151C15.5962 27.3778 15.5311 27.6596 15.5311 27.9602V28.4432C15.5311 28.8551 15.6021 29.2043 15.7441 29.4908C15.8886 29.7749 16.0886 29.9915 16.3443 30.1406C16.6 30.2874 16.8971 30.3608 17.2356 30.3608C17.4558 30.3608 17.6547 30.33 17.8322 30.2685C18.0121 30.2045 18.1672 30.1098 18.2974 29.9844C18.4276 29.8565 18.5282 29.6979 18.5993 29.5085L19.4089 29.7358C19.3237 30.0104 19.1805 30.2519 18.9792 30.4602C18.778 30.6662 18.5294 30.8272 18.2335 30.9432C17.9376 31.0568 17.6049 31.1136 17.2356 31.1136ZM25.0632 25.5455L23.0462 31H22.1939L20.1768 25.5455H21.0859L22.5916 29.892H22.6484L24.1541 25.5455H25.0632ZM26.1694 31V25.5455H27.0075V31H26.1694ZM26.5955 24.6364C26.4322 24.6364 26.2913 24.5807 26.1729 24.4695C26.0569 24.3582 25.9989 24.2244 25.9989 24.0682C25.9989 23.9119 26.0569 23.7782 26.1729 23.6669C26.2913 23.5556 26.4322 23.5 26.5955 23.5C26.7589 23.5 26.8986 23.5556 27.0146 23.6669C27.1329 23.7782 27.1921 23.9119 27.1921 24.0682C27.1921 24.2244 27.1329 24.3582 27.0146 24.4695C26.8986 24.5807 26.7589 24.6364 26.5955 24.6364ZM30.8294 31.1136C30.3038 31.1136 29.8504 30.9976 29.4693 30.7656C29.0905 30.5312 28.7981 30.2045 28.5922 29.7855C28.3886 29.3641 28.2868 28.8741 28.2868 28.3153C28.2868 27.7566 28.3886 27.2642 28.5922 26.8381C28.7981 26.4096 29.0846 26.0758 29.4515 25.8366C29.8208 25.5952 30.2517 25.4744 30.7441 25.4744C31.0282 25.4744 31.3088 25.5218 31.5858 25.6165C31.8627 25.7112 32.1149 25.8651 32.3422 26.0781C32.5694 26.2888 32.7505 26.5682 32.8855 26.9162C33.0204 27.2642 33.0879 27.6927 33.0879 28.2017V28.5568H28.8833V27.8324H32.2356C32.2356 27.5246 32.1741 27.25 32.051 27.0085C31.9302 26.767 31.7574 26.5765 31.5325 26.4368C31.31 26.2971 31.0472 26.2273 30.7441 26.2273C30.4103 26.2273 30.1215 26.3101 29.8777 26.4759C29.6362 26.6392 29.4503 26.8523 29.3201 27.1151C29.1899 27.3778 29.1248 27.6596 29.1248 27.9602V28.4432C29.1248 28.8551 29.1958 29.2043 29.3379 29.4908C29.4823 29.7749 29.6824 29.9915 29.938 30.1406C30.1937 30.2874 30.4908 30.3608 30.8294 30.3608C31.0495 30.3608 31.2484 30.33 31.426 30.2685C31.6059 30.2045 31.7609 30.1098 31.8912 29.9844C32.0214 29.8565 32.122 29.6979 32.193 29.5085L33.0027 29.7358C32.9174 30.0104 32.7742 30.2519 32.573 30.4602C32.3717 30.6662 32.1232 30.8272 31.8272 30.9432C31.5313 31.0568 31.1987 31.1136 30.8294 31.1136ZM35.5985 31L33.9366 25.5455H34.8173L35.9963 29.7216H36.0531L37.2179 25.5455H38.1127L39.2633 29.7074H39.3201L40.4991 25.5455H41.3798L39.7179 31H38.894L37.7008 26.8097H37.6156L36.4224 31H35.5985ZM15.0175 43L13.3556 37.5455H14.2362L15.4152 41.7216H15.472L16.6368 37.5455H17.5317L18.6823 41.7074H18.7391L19.9181 37.5455H20.7987L19.1368 43H18.3129L17.1198 38.8097H17.0345L15.8414 43H15.0175ZM24.0081 43.1136C23.4825 43.1136 23.0291 42.9976 22.648 42.7656C22.2692 42.5312 21.9768 42.2045 21.7709 41.7855C21.5673 41.3641 21.4655 40.8741 21.4655 40.3153C21.4655 39.7566 21.5673 39.2642 21.7709 38.8381C21.9768 38.4096 22.2633 38.0758 22.6302 37.8366C22.9996 37.5952 23.4304 37.4744 23.9229 37.4744C24.2069 37.4744 24.4875 37.5218 24.7645 37.6165C25.0415 37.7112 25.2936 37.8651 25.5209 38.0781C25.7481 38.2888 25.9292 38.5682 26.0642 38.9162C26.1991 39.2642 26.2666 39.6927 26.2666 40.2017V40.5568H22.0621V39.8324H25.4143C25.4143 39.5246 25.3528 39.25 25.2297 39.0085C25.1089 38.767 24.9361 38.5765 24.7112 38.4368C24.4887 38.2971 24.2259 38.2273 23.9229 38.2273C23.589 38.2273 23.3002 38.3101 23.0564 38.4759C22.8149 38.6392 22.6291 38.8523 22.4988 39.1151C22.3686 39.3778 22.3035 39.6596 22.3035 39.9602V40.4432C22.3035 40.8551 22.3746 41.2043 22.5166 41.4908C22.661 41.7749 22.8611 41.9915 23.1167 42.1406C23.3724 42.2874 23.6695 42.3608 24.0081 42.3608C24.2282 42.3608 24.4271 42.33 24.6047 42.2685C24.7846 42.2045 24.9397 42.1098 25.0699 41.9844C25.2001 41.8565 25.3007 41.6979 25.3717 41.5085L26.1814 41.7358C26.0961 42.0104 25.9529 42.2519 25.7517 42.4602C25.5505 42.6662 25.3019 42.8272 25.0059 42.9432C24.71 43.0568 24.3774 43.1136 24.0081 43.1136ZM27.6551 43V35.7273H28.4932V38.4119H28.5642C28.6257 38.3172 28.711 38.1965 28.8199 38.0497C28.9311 37.9006 29.0898 37.768 29.2957 37.652C29.5041 37.5336 29.7858 37.4744 30.1409 37.4744C30.6002 37.4744 31.005 37.5893 31.3554 37.8189C31.7058 38.0485 31.9792 38.3741 32.1757 38.7955C32.3722 39.2169 32.4704 39.714 32.4704 40.2869C32.4704 40.8646 32.3722 41.3653 32.1757 41.7891C31.9792 42.2105 31.7069 42.5372 31.3589 42.7692C31.0109 42.9988 30.6096 43.1136 30.1551 43.1136C29.8047 43.1136 29.5242 43.0556 29.3135 42.9396C29.1028 42.8213 28.9406 42.6875 28.827 42.5384C28.7133 42.3868 28.6257 42.2614 28.5642 42.1619H28.4648V43H27.6551ZM28.479 40.2727C28.479 40.6847 28.5393 41.0481 28.6601 41.3629C28.7808 41.6754 28.9572 41.9205 29.1892 42.098C29.4212 42.2732 29.7053 42.3608 30.0415 42.3608C30.3918 42.3608 30.6842 42.2685 30.9186 42.0838C31.1553 41.8968 31.3329 41.6458 31.4513 41.331C31.572 41.0137 31.6324 40.661 31.6324 40.2727C31.6324 39.8892 31.5732 39.5436 31.4548 39.2358C31.3388 38.9257 31.1624 38.6806 30.9257 38.5007C30.6913 38.3184 30.3966 38.2273 30.0415 38.2273C29.7006 38.2273 29.4141 38.3137 29.1821 38.4865C28.9501 38.657 28.7749 38.8961 28.6565 39.2038C28.5381 39.5092 28.479 39.8655 28.479 40.2727ZM8.04927 55V49.5455H8.85893V50.3977H8.92995C9.04359 50.1065 9.22707 49.8804 9.48038 49.7195C9.73369 49.5561 10.0379 49.4744 10.393 49.4744C10.7529 49.4744 11.0523 49.5561 11.2915 49.7195C11.5329 49.8804 11.7211 50.1065 11.8561 50.3977H11.9129C12.0526 50.116 12.2621 49.8923 12.5415 49.7266C12.8208 49.5585 13.1558 49.4744 13.5464 49.4744C14.0341 49.4744 14.433 49.6271 14.7432 49.9325C15.0533 50.2356 15.2084 50.7079 15.2084 51.3494V55H14.3703V51.3494C14.3703 50.947 14.2602 50.6593 14.04 50.4865C13.8199 50.3137 13.5606 50.2273 13.2623 50.2273C12.8788 50.2273 12.5817 50.3433 12.371 50.5753C12.1603 50.8049 12.055 51.0961 12.055 51.4489V55H11.2027V51.2642C11.2027 50.9541 11.1021 50.7043 10.9008 50.5149C10.6996 50.3232 10.4404 50.2273 10.1231 50.2273C9.90533 50.2273 9.70173 50.2853 9.51234 50.4013C9.32531 50.5173 9.1738 50.6783 9.05779 50.8842C8.94416 51.0878 8.88734 51.3234 8.88734 51.5909V55H8.04927ZM18.9566 55.1136C18.4642 55.1136 18.0321 54.9964 17.6604 54.7621C17.2911 54.5277 17.0023 54.1998 16.7939 53.7784C16.588 53.357 16.485 52.8646 16.485 52.3011C16.485 51.733 16.588 51.237 16.7939 50.8132C17.0023 50.3894 17.2911 50.0604 17.6604 49.826C18.0321 49.5916 18.4642 49.4744 18.9566 49.4744C19.449 49.4744 19.8799 49.5916 20.2492 49.826C20.6209 50.0604 20.9097 50.3894 21.1157 50.8132C21.324 51.237 21.4282 51.733 21.4282 52.3011C21.4282 52.8646 21.324 53.357 21.1157 53.7784C20.9097 54.1998 20.6209 54.5277 20.2492 54.7621C19.8799 54.9964 19.449 55.1136 18.9566 55.1136ZM18.9566 54.3608C19.3306 54.3608 19.6384 54.2649 19.8799 54.0732C20.1214 53.8814 20.3001 53.6293 20.4161 53.3168C20.5321 53.0043 20.5901 52.6657 20.5901 52.3011C20.5901 51.9366 20.5321 51.5968 20.4161 51.282C20.3001 50.9671 20.1214 50.7126 19.8799 50.5185C19.6384 50.3243 19.3306 50.2273 18.9566 50.2273C18.5825 50.2273 18.2748 50.3243 18.0333 50.5185C17.7918 50.7126 17.6131 50.9671 17.4971 51.282C17.3811 51.5968 17.3231 51.9366 17.3231 52.3011C17.3231 52.6657 17.3811 53.0043 17.4971 53.3168C17.6131 53.6293 17.7918 53.8814 18.0333 54.0732C18.2748 54.2649 18.5825 54.3608 18.9566 54.3608ZM22.8211 55V47.7273H23.6592V50.4119H23.7302C23.7918 50.3172 23.877 50.1965 23.9859 50.0497C24.0972 49.9006 24.2558 49.768 24.4617 49.652C24.6701 49.5336 24.9518 49.4744 25.3069 49.4744C25.7662 49.4744 26.171 49.5893 26.5214 49.8189C26.8718 50.0485 27.1452 50.3741 27.3417 50.7955C27.5382 51.2169 27.6365 51.714 27.6365 52.2869C27.6365 52.8646 27.5382 53.3653 27.3417 53.7891C27.1452 54.2105 26.873 54.5372 26.5249 54.7692C26.1769 54.9988 25.7757 55.1136 25.3211 55.1136C24.9707 55.1136 24.6902 55.0556 24.4795 54.9396C24.2688 54.8213 24.1066 54.6875 23.993 54.5384C23.8794 54.3868 23.7918 54.2614 23.7302 54.1619H23.6308V55H22.8211ZM23.645 52.2727C23.645 52.6847 23.7053 53.0481 23.8261 53.3629C23.9468 53.6754 24.1232 53.9205 24.3552 54.098C24.5872 54.2732 24.8713 54.3608 25.2075 54.3608C25.5579 54.3608 25.8502 54.2685 26.0846 54.0838C26.3213 53.8968 26.4989 53.6458 26.6173 53.331C26.738 53.0137 26.7984 52.661 26.7984 52.2727C26.7984 51.8892 26.7392 51.5436 26.6208 51.2358C26.5048 50.9257 26.3285 50.6806 26.0917 50.5007C25.8573 50.3184 25.5626 50.2273 25.2075 50.2273C24.8666 50.2273 24.5801 50.3137 24.3481 50.4865C24.1161 50.657 23.9409 50.8961 23.8225 51.2038C23.7042 51.5092 23.645 51.8655 23.645 52.2727ZM28.9184 55V49.5455H29.7565V55H28.9184ZM29.3445 48.6364C29.1812 48.6364 29.0403 48.5807 28.922 48.4695C28.806 48.3582 28.748 48.2244 28.748 48.0682C28.748 47.9119 28.806 47.7782 28.922 47.6669C29.0403 47.5556 29.1812 47.5 29.3445 47.5C29.5079 47.5 29.6476 47.5556 29.7636 47.6669C29.882 47.7782 29.9411 47.9119 29.9411 48.0682C29.9411 48.2244 29.882 48.3582 29.7636 48.4695C29.6476 48.5807 29.5079 48.6364 29.3445 48.6364ZM32.1295 47.7273V55H31.2915V47.7273H32.1295ZM35.9514 55.1136C35.4259 55.1136 34.9725 54.9976 34.5914 54.7656C34.2126 54.5312 33.9202 54.2045 33.7142 53.7855C33.5106 53.3641 33.4088 52.8741 33.4088 52.3153C33.4088 51.7566 33.5106 51.2642 33.7142 50.8381C33.9202 50.4096 34.2066 50.0758 34.5736 49.8366C34.9429 49.5952 35.3738 49.4744 35.8662 49.4744C36.1503 49.4744 36.4308 49.5218 36.7078 49.6165C36.9848 49.7112 37.2369 49.8651 37.4642 50.0781C37.6915 50.2888 37.8726 50.5682 38.0075 50.9162C38.1425 51.2642 38.21 51.6927 38.21 52.2017V52.5568H34.0054V51.8324H37.3577C37.3577 51.5246 37.2961 51.25 37.173 51.0085C37.0523 50.767 36.8795 50.5765 36.6546 50.4368C36.432 50.2971 36.1692 50.2273 35.8662 50.2273C35.5324 50.2273 35.2436 50.3101 34.9997 50.4759C34.7583 50.6392 34.5724 50.8523 34.4422 51.1151C34.312 51.3778 34.2469 51.6596 34.2469 51.9602V52.4432C34.2469 52.8551 34.3179 53.2043 34.46 53.4908C34.6044 53.7749 34.8044 53.9915 35.0601 54.1406C35.3158 54.2874 35.6129 54.3608 35.9514 54.3608C36.1716 54.3608 36.3705 54.33 36.548 54.2685C36.728 54.2045 36.883 54.1098 37.0132 53.9844C37.1434 53.8565 37.2441 53.6979 37.3151 53.5085L38.1247 53.7358C38.0395 54.0104 37.8963 54.2519 37.695 54.4602C37.4938 54.6662 37.2452 54.8272 36.9493 54.9432C36.6534 55.0568 36.3208 55.1136 35.9514 55.1136Z" fill="white"/>
</svg>
