<svg width="24" height="24" viewBox="0 0 24 24" fill="none" xmlns="http://www.w3.org/2000/svg">
<path d="M11.103 10.438C10.7971 10.6146 10.5505 10.878 10.3942 11.1948C10.238 11.5116 10.1793 11.8676 10.2254 12.2178C10.2715 12.568 10.4204 12.8966 10.6532 13.1622C10.8861 13.4278 11.1925 13.6183 11.5337 13.7098C11.8749 13.8012 12.2355 13.7895 12.57 13.676C12.9045 13.5625 13.1978 13.3523 13.4128 13.0721C13.6279 12.7919 13.7551 12.4543 13.7782 12.1018C13.8014 11.7493 13.7195 11.3979 13.543 11.092C13.4257 10.8888 13.2696 10.7107 13.0835 10.5679C12.8974 10.4251 12.685 10.3203 12.4585 10.2596C12.2319 10.1988 11.9956 10.1833 11.763 10.2139C11.5304 10.2446 11.3061 10.3207 11.103 10.438ZM19.108 12.376C18.9907 12.242 18.867 12.1077 18.737 11.973C18.8277 11.877 18.9157 11.7813 19.001 11.686C20.606 9.882 21.284 8.072 20.656 6.985C20.054 5.942 18.263 5.631 16.02 6.067C15.7993 6.11033 15.5797 6.159 15.361 6.213C15.319 6.069 15.2747 5.92567 15.228 5.783C14.467 3.49 13.238 1.999 11.982 2C10.778 2 9.61399 3.397 8.87099 5.558C8.79766 5.77133 8.72999 5.986 8.66799 6.202C8.52199 6.166 8.37532 6.13267 8.22799 6.102C5.86199 5.617 3.95699 5.937 3.32999 7.026C2.72899 8.069 3.35699 9.776 4.85799 11.498C5.00732 11.668 5.16066 11.8347 5.31799 11.998C5.13199 12.1887 4.95699 12.379 4.79299 12.569C3.32799 14.267 2.73599 15.945 3.33599 16.984C3.95599 18.058 5.83399 18.409 8.12099 17.959C8.30632 17.9223 8.49066 17.881 8.67399 17.835C8.74066 18.069 8.81432 18.3013 8.89499 18.532C9.63499 20.649 10.792 22 11.992 22C13.232 22 14.474 20.547 15.227 18.341C15.2863 18.1663 15.3427 17.986 15.396 17.8C15.6327 17.8587 15.871 17.9107 16.111 17.956C18.314 18.373 20.063 18.046 20.662 17.006C21.281 15.931 20.642 14.129 19.108 12.376ZM4.06999 7.452C4.45599 6.782 6.01299 6.52 8.05599 6.94C8.18666 6.96667 8.31966 6.99667 8.45499 7.03C8.25539 7.91238 8.11441 8.807 8.03299 9.708C7.29643 10.2263 6.59398 10.7915 5.92999 11.4C5.78399 11.2487 5.64166 11.0937 5.50299 10.935C4.21599 9.461 3.70799 8.081 4.06999 7.452ZM7.95699 13.18C7.44699 12.793 6.97199 12.397 6.54099 11.999C6.97099 11.603 7.44599 11.209 7.95599 10.823C7.93732 11.2157 7.92832 11.6087 7.92899 12.002C7.92899 12.3953 7.93832 12.788 7.95699 13.18ZM7.95699 17.12C7.09032 17.3139 6.19526 17.3458 5.31699 17.214C5.07626 17.1949 4.84197 17.1268 4.62855 17.0138C4.41513 16.9008 4.22709 16.7454 4.07599 16.557C3.71099 15.927 4.18699 14.579 5.43999 13.127C5.59732 12.945 5.75999 12.7677 5.92799 12.595C6.5921 13.2075 7.29597 13.7754 8.03499 14.295C8.11769 15.2073 8.25999 16.1133 8.46099 17.007C8.29432 17.049 8.12599 17.087 7.95599 17.121M15.056 9.082C14.7207 8.87067 14.3813 8.66633 14.038 8.469C13.6993 8.27433 13.357 8.08667 13.011 7.906C13.58 7.6662 14.1603 7.45428 14.75 7.271C14.8827 7.86907 14.9849 8.47352 15.056 9.082ZM9.67999 5.835C10.316 3.985 11.258 2.855 11.984 2.855C12.757 2.854 13.761 4.073 14.418 6.052C14.4607 6.18133 14.5007 6.31133 14.538 6.442C13.6755 6.70935 12.8317 7.03339 12.012 7.412C11.1951 7.02852 10.3532 6.70077 9.49199 6.431C9.54999 6.231 9.61266 6.03233 9.67999 5.835ZM9.27999 7.259C9.86725 7.44328 10.4447 7.65756 11.01 7.901C10.3087 8.26233 9.62599 8.656 8.96199 9.082C9.04199 8.444 9.14899 7.833 9.27999 7.259ZM8.96299 14.919C9.29432 15.1317 9.63066 15.336 9.97199 15.532C10.32 15.732 10.6723 15.924 11.029 16.108C10.4595 16.3597 9.87743 16.5816 9.28499 16.773C9.14713 16.161 9.03967 15.5426 8.96299 14.92M14.419 18.066C14.1537 18.9133 13.734 19.7043 13.181 20.399C13.0445 20.5981 12.8686 20.7672 12.6643 20.8958C12.46 21.0245 12.2316 21.1099 11.993 21.147C11.264 21.147 10.335 20.062 9.70299 18.251C9.62832 18.037 9.55966 17.821 9.49699 17.603C10.3623 17.3242 11.2076 16.9868 12.027 16.593C12.8539 16.9742 13.7047 17.3012 14.574 17.572C14.526 17.738 14.4743 17.9027 14.419 18.066ZM14.781 16.742C14.1834 16.5558 13.5953 16.3402 13.019 16.096C13.3583 15.918 13.7 15.7297 14.044 15.531C14.3973 15.327 14.7413 15.118 15.076 14.904C15.0094 15.5213 14.911 16.1348 14.781 16.742ZM15.228 11.999C15.228 12.6063 15.209 13.213 15.171 13.819C14.677 14.1537 14.159 14.4777 13.617 14.791C13.077 15.1023 12.5447 15.3877 12.02 15.647C11.4687 15.383 10.928 15.0983 10.398 14.793C9.87132 14.4897 9.35666 14.1667 8.85399 13.824C8.80732 13.2173 8.78399 12.61 8.78399 12.002C8.78399 11.3947 8.80666 10.7877 8.85199 10.181C9.8569 9.49413 10.9126 8.8847 12.01 8.358C12.554 8.62267 13.0883 8.90633 13.613 9.209C14.1397 9.51167 14.6563 9.83133 15.163 10.168C15.2063 10.7773 15.228 11.3877 15.228 11.999ZM16.184 6.906C18.106 6.533 19.554 6.784 19.917 7.413C20.304 8.083 19.75 9.561 18.363 11.119C18.2863 11.205 18.207 11.2913 18.125 11.378C17.4496 10.7672 16.7333 10.2032 15.981 9.69C15.9054 8.79894 15.7701 7.91395 15.576 7.041C15.7827 6.99033 15.9853 6.94533 16.184 6.906ZM16.054 10.791C16.5617 11.1612 17.0497 11.5578 17.516 11.979C17.0518 12.4069 16.5655 12.8102 16.059 13.187C16.0743 12.791 16.082 12.395 16.082 11.999C16.082 11.5963 16.0727 11.1937 16.054 10.791ZM19.923 16.58C19.559 17.211 18.155 17.474 16.27 17.118C16.054 17.0773 15.8327 17.0287 15.606 16.972C15.7955 16.0878 15.9248 15.1917 15.993 14.29C16.7437 13.7679 17.4577 13.1948 18.13 12.575C18.248 12.697 18.36 12.8183 18.466 12.939C19.0677 13.5921 19.5433 14.3509 19.869 15.177C19.9732 15.3948 20.0318 15.6316 20.0411 15.8729C20.0503 16.1142 20.0102 16.3548 19.923 16.58Z" fill="black"/>
</svg>
